/* XPM */
static char * qsa_xpm[] = {
"22 22 225 2",
"  	c None",
". 	c #000000",
"+ 	c #040401",
"@ 	c #121500",
"# 	c #1B2100",
"$ 	c #374013",
"% 	c #7D881D",
"& 	c #747D14",
"* 	c #6E7B17",
"= 	c #6C7715",
"- 	c #697316",
"; 	c #666F16",
"> 	c #636B16",
", 	c #696D18",
"' 	c #3C430E",
") 	c #101400",
"! 	c #485400",
"~ 	c #4B5900",
"{ 	c #2E3806",
"] 	c #86912B",
"^ 	c #EAFF25",
"/ 	c #DAF720",
"( 	c #DDF824",
"_ 	c #DEFA26",
": 	c #E2FC28",
"< 	c #E4FD2A",
"[ 	c #ECFF2D",
"} 	c #E7FD2C",
"| 	c #46520D",
"1 	c #242C00",
"2 	c #4F5D00",
"3 	c #4B5A00",
"4 	c #435100",
"5 	c #323A12",
"6 	c #B0D110",
"7 	c #A9C904",
"8 	c #ABCB08",
"9 	c #ADCD09",
"0 	c #AFD00B",
"a 	c #B1D10C",
"b 	c #B3D40E",
"c 	c #D9FD11",
"d 	c #6F830A",
"e 	c #282E00",
"f 	c #566600",
"g 	c #4F5F00",
"h 	c #384105",
"i 	c #68771A",
"j 	c #A8C704",
"k 	c #9CB900",
"l 	c #9DBC00",
"m 	c #99B700",
"n 	c #A3C300",
"o 	c #ADCE00",
"p 	c #94B000",
"q 	c #1C2100",
"r 	c #627500",
"s 	c #435000",
"t 	c #2D330C",
"u 	c #54630A",
"v 	c #4A5900",
"w 	c #4A5700",
"x 	c #465300",
"y 	c #475503",
"z 	c #5A6330",
"A 	c #1B2006",
"B 	c #191E00",
"C 	c #0A0C00",
"D 	c #5E6F00",
"E 	c #6A7E00",
"F 	c #647700",
"G 	c #637600",
"H 	c #687D00",
"I 	c #6F8400",
"J 	c #728800",
"K 	c #758C02",
"L 	c #B8C578",
"M 	c #3E3D41",
"N 	c #010100",
"O 	c #455100",
"P 	c #829A00",
"Q 	c #768B00",
"R 	c #728700",
"S 	c #788E00",
"T 	c #869D00",
"U 	c #8BA600",
"V 	c #B3CC34",
"W 	c #A1A67E",
"X 	c #010001",
"Y 	c #141800",
"Z 	c #4F5E00",
"` 	c #424D00",
" .	c #394500",
"..	c #3B4700",
"+.	c #3E4A00",
"@.	c #485500",
"#.	c #607300",
"$.	c #8FAC03",
"%.	c #E4F77C",
"&.	c #494A3F",
"*.	c #212700",
"=.	c #424E00",
"-.	c #3D4800",
";.	c #414E00",
">.	c #414D00",
",.	c #3D4900",
"'.	c #3F4C00",
").	c #425300",
"!.	c #AABF2E",
"~.	c #CCD38C",
"{.	c #0C0B0E",
"].	c #050500",
"^.	c #617300",
"/.	c #8DA700",
"(.	c #91AA00",
"_.	c #93AF00",
":.	c #738A00",
"<.	c #495A00",
"[.	c #D9E66F",
"}.	c #87896B",
"|.	c #384100",
"1.	c #AFCE00",
"2.	c #9DB900",
"3.	c #718700",
"4.	c #ADCF00",
"5.	c #95B303",
"6.	c #515F05",
"7.	c #455102",
"8.	c #869C16",
"9.	c #E9EEA1",
"0.	c #272822",
"a.	c #637700",
"b.	c #374100",
"c.	c #536101",
"d.	c #BBDD08",
"e.	c #7C920A",
"f.	c #485408",
"g.	c #F4FF73",
"h.	c #8C8E78",
"i.	c #0B0D00",
"j.	c #516101",
"k.	c #8CA505",
"l.	c #C3E60C",
"m.	c #96AF0E",
"n.	c #4A560A",
"o.	c #657705",
"p.	c #DDFA39",
"q.	c #DBDAA9",
"r.	c #171717",
"s.	c #343E00",
"t.	c #5D6F02",
"u.	c #9DBA07",
"v.	c #D0F412",
"w.	c #92AA11",
"x.	c #49550B",
"y.	c #6F8210",
"z.	c #D7F722",
"A.	c #FFFFAB",
"B.	c #3C3C3A",
"C.	c #090A00",
"D.	c #111500",
"E.	c #191F01",
"F.	c #566603",
"G.	c #4F5E06",
"H.	c #8AA10E",
"I.	c #758710",
"J.	c #4E5A0C",
"K.	c #94AC1A",
"L.	c #E2FF21",
"M.	c #FFFFAC",
"N.	c #4B494A",
"O.	c #1B2000",
"P.	c #4D5A00",
"Q.	c #586900",
"R.	c #5B6C00",
"S.	c #131801",
"T.	c #4B5905",
"U.	c #5D6D09",
"V.	c #53620A",
"W.	c #56640B",
"X.	c #61700F",
"Y.	c #C2E01F",
"Z.	c #EBFF48",
"`.	c #F1F1BA",
" +	c #282728",
".+	c #6C8100",
"++	c #6D8100",
"@+	c #5F7100",
"#+	c #242B00",
"$+	c #7B9205",
"%+	c #596805",
"&+	c #4F5D0A",
"*+	c #515C13",
"=+	c #545D1E",
"-+	c #7A882E",
";+	c #9CA862",
">+	c #43463C",
",+	c #364000",
"'+	c #758B00",
")+	c #5A6A00",
"!+	c #3E4B01",
"~+	c #2C3209",
"{+	c #708116",
"]+	c #47501E",
"^+	c #3B4021",
"/+	c #2C2F1E",
"(+	c #181816",
"_+	c #0E0E12",
":+	c #0D0C10",
"<+	c #596A00",
"[+	c #4C5B00",
"}+	c #323C00",
"|+	c #1B1D0A",
"1+	c #2C2E1D",
"2+	c #1C1D17",
"3+	c #101012",
"4+	c #0F0F12",
"5+	c #16161A",
"6+	c #212025",
"7+	c #121504",
"8+	c #131703",
"9+	c #090905",
"0+	c #121111",
"a+	c #1A1B1C",
"b+	c #232324",
"          . . + . . . . . . . .             ",
"        . @ # $ % & * = - ; > , '           ",
"      . ) ! ~ { ] ^ / ( _ : < [ } |         ",
"      . 1 2 3 4 5 6 7 8 9 0 a b c d         ",
"      . e f g h i j k l k m n o p q         ",
"      . q r s t u v w x y z A B C           ",
"        C D E F G H I J K L M               ",
"        N O P Q R J S T U V W X             ",
"          Y Z `  ...+.@.#.$.%.&.            ",
"          . *.=.-.;.>.,.'.).!.~.{.          ",
"            ].^./.(._.:.~ x <.[.}.          ",
"            . |.1.2.3.4.5.6.7.8.9.0.        ",
"              . a.F b.c.d.e.f.r g.h.        ",
"                i.~ j.k.l.m.n.o.p.q.r.      ",
"                . s.t.u.v.w.x.y.z.A.B.      ",
"            . C.D.E.F.G.H.I.J.K.L.M.N.      ",
"          O.P.Q.R.S.T.U.V.W.X.Y.Z.`. +      ",
"        Y .+++G @+#+$+%+&+*+=+-+;+>+        ",
"        ,+'+)+D !+~+{+]+^+/+(+_+:+          ",
"        O.<+[+}+|+1+2+3+4+5+6+              ",
"          7+8+9+0+a+b+                      ",
"                                            "};
