<?xml version="1.0" encoding="UTF-8" standalone="no"?>
<!-- Created with Inkscape (http://www.inkscape.org/) -->
<svg
   xmlns:dc="http://purl.org/dc/elements/1.1/"
   xmlns:cc="http://web.resource.org/cc/"
   xmlns:rdf="http://www.w3.org/1999/02/22-rdf-syntax-ns#"
   xmlns:svg="http://www.w3.org/2000/svg"
   xmlns="http://www.w3.org/2000/svg"
   xmlns:sodipodi="http://inkscape.sourceforge.net/DTD/sodipodi-0.dtd"
   xmlns:inkscape="http://www.inkscape.org/namespaces/inkscape"
   width="425.19684"
   height="425.19684"
   id="svg2"
   sodipodi:version="0.32"
   inkscape:version="0.43+devel"
   sodipodi:docname="pdfedit_booklet2.svg"
   version="1.0">
  <defs
     id="defs4" />
  <sodipodi:namedview
     id="base"
     pagecolor="#ffffff"
     bordercolor="#666666"
     borderopacity="1.0"
     inkscape:pageopacity="0.0"
     inkscape:pageshadow="2"
     inkscape:zoom="0.98994949"
     inkscape:cx="110.01679"
     inkscape:cy="109.89411"
     inkscape:document-units="px"
     inkscape:current-layer="layer1"
     inkscape:window-width="1117"
     inkscape:window-height="1094"
     inkscape:window-x="232"
     inkscape:window-y="30"
     width="12cm"
     height="12cm"
     units="cm" />
  <metadata
     id="metadata7">
    <rdf:RDF>
      <cc:Work
         rdf:about="">
        <dc:format>image/svg+xml</dc:format>
        <dc:type
           rdf:resource="http://purl.org/dc/dcmitype/StillImage" />
        <dc:title>PDF Editor Booklet</dc:title>
        <dc:creator>
          <cc:Agent>
            <dc:title>Martin Petricek</dc:title>
          </cc:Agent>
        </dc:creator>
        <cc:license
           rdf:resource="http://creativecommons.org/licenses/GPL/2.0/" />
      </cc:Work>
      <cc:License
         rdf:about="http://creativecommons.org/licenses/GPL/2.0/">
        <cc:permits
           rdf:resource="http://web.resource.org/cc/Reproduction" />
        <cc:permits
           rdf:resource="http://web.resource.org/cc/Distribution" />
        <cc:requires
           rdf:resource="http://web.resource.org/cc/Notice" />
        <cc:permits
           rdf:resource="http://web.resource.org/cc/DerivativeWorks" />
        <cc:requires
           rdf:resource="http://web.resource.org/cc/ShareAlike" />
        <cc:requires
           rdf:resource="http://web.resource.org/cc/SourceCode" />
      </cc:License>
    </rdf:RDF>
  </metadata>
  <g
     inkscape:label="Layer 1"
     inkscape:groupmode="layer"
     id="layer1">
    <rect
       style="opacity:1;fill:white;fill-opacity:1;fill-rule:nonzero;stroke:black;stroke-width:1.5;stroke-linejoin:round;stroke-miterlimit:4;stroke-dasharray:none;stroke-dashoffset:0;stroke-opacity:1"
       id="rect5550"
       width="421.49564"
       height="420.80524"
       x="2.0961142"
       y="2.6315794" />
    <path
       style="font-size:22.1550293px;font-style:normal;font-variant:normal;font-weight:bold;font-stretch:normal;text-align:start;line-height:100%;writing-mode:lr-tb;text-anchor:start;fill:#8edaee;fill-opacity:1;stroke:none;stroke-width:1px;stroke-linecap:butt;stroke-linejoin:miter;stroke-opacity:1;font-family:verdana"
       d="M 39.234817,27.030088 C 21.616217,35.658087 32.753047,57.670191 28.645597,72.497137 C 22.071187,88.486476 38.566327,118.2032 55.494717,100.52101 C 62.862527,88.991286 76.623847,74.570212 91.136687,79.002945 C 85.069497,99.503586 108.11275,113.44284 126.54843,106.65771 C 142.25426,107.10034 159.82002,80.445951 169.12155,102.57625 C 185.92057,114.44713 194.73154,95.553746 199.08507,83.174369 C 216.38943,77.12771 228.06623,61.800595 224.3458,42.760903 C 221.81209,20.952402 193.97916,23.348917 178.06085,25.997792 C 165.85204,34.617715 152.27202,42.875502 139.18877,29.459141 C 118.92757,20.794653 97.140211,31.664303 76.202517,31.181952 C 64.963857,24.541384 51.563167,27.483446 39.234817,27.030088 z M 61.023427,53.902708 C 69.526297,50.240846 58.874497,61.171514 61.023427,53.902708 z M 126.87346,54.629004 C 146.19716,54.067158 124.15705,87.568546 122.78434,63.217164 C 122.82358,59.975329 124.06379,56.506369 126.87346,54.629004 z "
       id="path3737" />
    <path
       style="font-size:22.1550293px;font-style:normal;font-variant:normal;font-weight:bold;font-stretch:normal;text-align:start;line-height:100%;writing-mode:lr-tb;text-anchor:start;fill:#0200dd;fill-opacity:1;stroke:none;stroke-width:1px;stroke-linecap:butt;stroke-linejoin:miter;stroke-opacity:1;font-family:verdana"
       d="M 88.794227,54.486236 C 89.543347,69.163324 72.975737,80.166747 59.408267,76.362901 C 48.862137,76.146719 55.352877,88.619336 52.991567,94.399766 C 48.552637,101.757 34.318577,98.059476 36.882247,88.649116 C 37.859617,73.776816 37.021157,58.84358 37.294937,43.93958 C 37.450847,39.277708 35.491077,32.575958 42.496677,34.944738 C 54.957967,35.098866 68.202287,32.925002 79.935267,38.18239 C 85.450477,41.536364 89.451797,47.890349 88.794227,54.486236 z M 72.158587,54.86345 C 71.812477,46.632613 56.775837,41.797401 53.876337,50.353488 C 50.954017,57.035726 53.365307,69.113511 62.998057,64.895507 C 67.944057,64.212177 73.101987,60.432154 72.158587,54.86345 z M 159.10816,66.051601 C 160.12816,83.450881 143.17668,98.730376 126.05527,97.032756 C 117.42549,97.482516 108.7843,97.000066 100.15006,97.185836 C 100.15004,76.387808 100.15006,55.589737 100.15006,34.791695 C 115.96277,35.686171 133.63387,31.627563 147.57428,41.28625 C 155.06755,47.059283 159.65513,56.562652 159.10816,66.051601 z M 142.47251,65.925944 C 143.72085,55.903686 134.60522,45.599659 124.33703,46.596086 C 115.59184,42.870447 114.30352,55.133745 116.24096,60.828067 C 116.24096,69.050295 116.24096,77.272561 116.24096,85.494788 C 124.67188,86.083716 135.3501,85.40806 139.99349,77.146671 C 141.90171,73.74482 142.46477,69.775187 142.47251,65.925944 z M 216.09681,46.859835 C 206.52886,46.859835 196.96089,46.859835 187.39296,46.859835 C 183.90231,54.494641 191.55878,62.338512 199.13816,58.811469 C 205.41086,56.900268 217.01745,57.557026 214.30017,66.972998 C 209.67999,74.258683 199.65543,69.697291 192.83149,69.946242 C 183.58638,71.890406 187.85435,82.187529 187.47777,88.674416 C 189.63455,95.585486 184.23338,99.730746 177.66216,97.425956 C 168.47944,96.864256 171.71046,87.370076 171.38586,81.336941 C 171.38586,65.821862 171.38586,50.306774 171.38586,34.791695 C 186.2895,34.791695 201.19315,34.791695 216.09679,34.791695 C 216.09673,38.814395 216.09677,42.837134 216.09681,46.859835 z "
       id="text2823" />
    <path
       style="font-size:16.05597496px;font-style:normal;font-variant:normal;font-weight:normal;font-stretch:normal;line-height:100%;writing-mode:lr-tb;text-anchor:start;opacity:1;fill:#8edaee;fill-opacity:1;stroke:none;stroke-width:1px;stroke-linecap:butt;stroke-linejoin:miter;stroke-opacity:1;font-family:Verdana"
       d="M 272.91902,71.048885 C 269.91649,80.067495 258.57349,87.537676 249.51329,82.251175 C 244.97684,75.938505 239.71327,68.929645 230.86131,70.207135 C 214.86248,69.688485 202.36151,85.141815 202.3712,100.41527 C 202.44418,107.76876 203.41492,115.23232 205.5264,122.2678 C 209.87026,132.27441 221.79442,134.55018 231.59689,133.9468 C 243.91867,133.55496 256.2314,131.91959 268.55986,133.12509 C 291.30667,133.51705 314.1336,130.9023 336.81372,133.60671 C 350.76302,131.3698 366.30421,135.96451 378.95992,128.01724 C 387.94898,122.93213 383.55639,109.582 393.61508,106.81314 C 401.08034,101.72381 398.80325,91.076016 391.92031,86.696826 C 384.76817,81.022295 374.8521,80.784875 366.51443,83.641055 C 344.81938,87.803106 322.11365,83.237265 302.53024,73.442125 C 292.59158,73.721975 282.8187,71.481385 272.91902,71.048885 z M 345.66877,103.36866 C 353.65487,105.46318 341.54129,114.35016 343.10567,106.34573 C 343.74558,105.18496 344.72136,104.27116 345.66877,103.36866 z M 266.62453,104.82124 C 274.19111,112.887 256.65027,109.94286 266.62453,104.82124 z M 322.79073,104.4581 C 325.31255,109.14466 318.99168,110.08213 322.47,105.08834 L 322.65705,104.72078 L 322.79073,104.4581 z M 229.70494,111.11573 C 232.30886,108.38119 244.44057,110.56098 236.34933,113.03341 C 233.99346,113.22668 231.64636,112.41249 229.70494,111.11573 z "
       id="path3741" />
    <path
       style="font-size:16.05597496px;font-style:normal;font-variant:normal;font-weight:normal;font-stretch:normal;line-height:100%;writing-mode:lr-tb;text-anchor:start;fill:#0200dd;fill-opacity:1;stroke:none;stroke-width:1px;stroke-linecap:butt;stroke-linejoin:miter;stroke-opacity:1;font-family:Verdana"
       d="M 243.20032,125.68781 C 233.27004,125.68781 223.33976,125.68781 213.40948,125.68781 C 213.40948,110.61525 213.40948,95.542636 213.40948,80.470065 C 223.33976,80.470065 233.27004,80.470065 243.20032,80.470065 C 245.633,89.840176 233.00203,84.404145 227.78508,85.814846 C 222.82908,85.453285 217.56985,84.788555 219.42231,91.235466 C 218.21636,96.993736 220.18905,99.573396 226.10988,98.204876 C 231.8067,98.204876 237.5035,98.204876 243.20032,98.204876 C 245.633,107.57499 233.00203,102.13892 227.78508,103.54966 C 223.07702,103.37848 217.45475,102.29312 219.42231,108.79759 C 219.77391,114.27597 217.00666,122.87323 225.36682,120.34304 C 231.31131,120.34304 237.25583,120.34304 243.20032,120.34304 C 243.20032,122.12463 243.20032,123.90622 243.20032,125.68781 z M 279.82392,125.68781 C 276.51457,126.23235 273.98347,125.78907 273.31011,122.84205 C 268.08981,127.15549 260.2597,128.7094 254.96009,123.42525 C 248.56954,116.68441 248.40643,105.40697 253.02422,97.627486 C 256.36152,92.138656 263.73711,88.891826 269.8212,91.652606 C 277.05277,94.832546 273.13967,84.167705 274.11476,80.134195 C 273.62731,76.776235 282.58301,77.697005 279.82392,82.427405 C 279.82392,96.847516 279.82392,111.26767 279.82392,125.68781 z M 274.11476,117.33671 C 272.80816,110.89089 276.86148,100.8801 271.83366,96.899146 C 263.73186,93.201786 254.65352,99.736276 255.84424,108.63773 C 254.37195,115.72095 260.71906,123.85621 268.16488,120.59737 C 270.33386,119.90355 272.32604,118.73312 274.11476,117.33671 z M 297.19432,86.088166 C 292.55631,87.948236 288.02563,83.624715 291.8643,80.166385 C 297.19453,79.165735 297.84722,80.905265 297.19432,86.088166 z M 296.82992,125.68781 C 288.29175,128.33487 291.75747,118.28255 291.12076,113.30046 C 291.12076,106.12265 291.12076,98.944796 291.12076,91.766986 C 299.65893,89.119936 296.19321,99.172286 296.82992,104.15435 C 296.82992,111.33216 296.82992,118.51001 296.82992,125.68781 z M 325.80081,125.38413 C 319.17204,127.87605 308.51531,126.21473 308.60078,117.30379 C 307.28088,110.50721 309.7047,102.82589 307.55119,96.477356 C 302.37923,97.891896 303.91724,90.231486 308.08864,91.259136 C 307.97912,86.804376 307.67648,78.526095 314.13505,82.896375 C 314.3521,86.818906 311.95813,93.904986 318.43661,91.766986 C 322.50347,91.269556 328.19492,91.148466 325.30961,96.536276 C 320.5344,97.319966 311.52447,93.773946 314.03812,101.84244 C 315.29086,107.76142 310.47575,120.37844 319.13905,121.17879 C 323.04136,120.50224 327.30868,119.67939 325.80081,125.38413 z M 361.63484,108.74255 C 362.37622,117.21454 356.20793,126.5826 347.13641,126.66406 C 338.61974,127.63953 330.78769,120.44956 330.48124,111.99616 C 329.0973,103.48609 333.06347,92.755366 342.46212,91.105396 C 350.75636,89.106106 360.14072,94.811466 361.14914,103.53521 C 361.49497,105.24766 361.63405,106.99718 361.63484,108.74255 z M 355.74349,108.74255 C 357.27524,100.90004 349.13848,92.294916 341.36223,96.766786 C 334.99095,101.24653 334.67393,111.581 338.43603,117.78903 C 342.51091,124.26685 353.38383,122.38373 354.93737,114.90689 C 355.55398,112.91659 355.7621,110.81934 355.74349,108.74255 z M 391.66861,97.992336 C 385.0569,95.885486 373.95734,98.636386 376.2114,107.62182 C 375.70939,113.30863 377.20928,121.32618 375.47216,125.5749 C 367.12991,128.05694 371.60618,116.85868 370.50224,112.27505 C 370.50224,105.43905 370.50224,98.602996 370.50224,91.766986 C 373.80534,91.378626 377.41181,91.271296 376.17292,95.715126 C 380.58679,94.839206 387.40168,88.351236 391.78828,93.520766 C 392.25499,95.009676 391.3907,96.464616 391.66861,97.992336 z "
       id="text2829" />
    <g
       id="g4662"
       transform="matrix(3.873531,0,0,3.873531,67.3771,-1559.221)">
      <rect
         y="451.19516"
         x="33.335033"
         height="51.265244"
         width="38.890873"
         id="rect3763"
         style="opacity:1;fill:white;fill-opacity:1;fill-rule:nonzero;stroke:black;stroke-width:0.625;stroke-linejoin:round;stroke-miterlimit:4;stroke-dasharray:none;stroke-dashoffset:0;stroke-opacity:1" />
      <path
         sodipodi:nodetypes="cc"
         id="path4638"
         d="M 36.112954,455.10949 L 68.816643,455.10949"
         style="fill:none;fill-opacity:0.75;fill-rule:evenodd;stroke:black;stroke-width:1px;stroke-linecap:butt;stroke-linejoin:miter;stroke-opacity:1" />
      <path
         style="fill:none;fill-opacity:0.75;fill-rule:evenodd;stroke:black;stroke-width:1px;stroke-linecap:butt;stroke-linejoin:miter;stroke-opacity:1"
         d="M 36.112954,457.63487 L 68.816643,457.63487"
         id="path4640"
         sodipodi:nodetypes="cc" />
      <path
         sodipodi:nodetypes="cc"
         id="path4642"
         d="M 36.112954,460.16025 L 68.816643,460.16025"
         style="fill:none;fill-opacity:0.75;fill-rule:evenodd;stroke:black;stroke-width:1px;stroke-linecap:butt;stroke-linejoin:miter;stroke-opacity:1" />
      <path
         style="fill:none;fill-opacity:0.75;fill-rule:evenodd;stroke:black;stroke-width:1px;stroke-linecap:butt;stroke-linejoin:miter;stroke-opacity:1"
         d="M 36.112954,462.55937 L 66.354396,462.55937"
         id="path4644"
         sodipodi:nodetypes="cc" />
      <path
         sodipodi:nodetypes="cc"
         id="path4646"
         d="M 36.112954,465.08475 L 68.816643,465.08475"
         style="fill:none;fill-opacity:0.75;fill-rule:evenodd;stroke:black;stroke-width:1px;stroke-linecap:butt;stroke-linejoin:miter;stroke-opacity:1" />
      <path
         style="fill:none;fill-opacity:0.75;fill-rule:evenodd;stroke:black;stroke-width:1px;stroke-linecap:butt;stroke-linejoin:miter;stroke-opacity:1"
         d="M 36.112954,467.61013 L 53.411817,467.61013"
         id="path4648"
         sodipodi:nodetypes="cc" />
      <path
         sodipodi:nodetypes="cc"
         id="path4650"
         d="M 36.112954,469.88298 L 68.816643,469.88298"
         style="fill:none;fill-opacity:0.75;fill-rule:evenodd;stroke:black;stroke-width:1px;stroke-linecap:butt;stroke-linejoin:miter;stroke-opacity:1" />
      <path
         style="fill:none;fill-opacity:0.75;fill-rule:evenodd;stroke:black;stroke-width:1px;stroke-linecap:butt;stroke-linejoin:miter;stroke-opacity:1"
         d="M 36.112954,472.40836 L 68.816643,472.40836"
         id="path4652"
         sodipodi:nodetypes="cc" />
      <path
         sodipodi:nodetypes="cc"
         id="path4654"
         d="M 36.112954,474.93374 L 68.816643,474.93374"
         style="fill:none;fill-opacity:0.75;fill-rule:evenodd;stroke:black;stroke-width:1px;stroke-linecap:butt;stroke-linejoin:miter;stroke-opacity:1" />
      <path
         style="fill:none;fill-opacity:0.75;fill-rule:evenodd;stroke:black;stroke-width:1px;stroke-linecap:butt;stroke-linejoin:miter;stroke-opacity:1"
         d="M 36.112954,477.33286 L 68.816643,477.33286"
         id="path4656"
         sodipodi:nodetypes="cc" />
      <path
         sodipodi:nodetypes="cc"
         id="path4658"
         d="M 36.112954,479.85824 L 68.816643,479.85824"
         style="fill:none;fill-opacity:0.75;fill-rule:evenodd;stroke:black;stroke-width:1px;stroke-linecap:butt;stroke-linejoin:miter;stroke-opacity:1" />
      <path
         style="fill:none;fill-opacity:0.75;fill-rule:evenodd;stroke:black;stroke-width:1px;stroke-linecap:butt;stroke-linejoin:miter;stroke-opacity:1"
         d="M 36.112954,482.38362 L 54.674507,482.38362"
         id="path4660"
         sodipodi:nodetypes="cc" />
    </g>
    <g
       id="g3756"
       transform="matrix(1.002543,-3.741544,3.741544,1.002543,-1417.21,63.87483)">
      <rect
         y="453.97305"
         x="48.108517"
         height="2.3359778"
         width="39.080276"
         id="rect3745"
         style="opacity:1;fill:#ef7f30;fill-opacity:1;fill-rule:nonzero;stroke:black;stroke-width:0.625;stroke-miterlimit:4;stroke-dasharray:none;stroke-dashoffset:0;stroke-opacity:1" />
      <rect
         style="opacity:1;fill:#e82713;fill-opacity:1;fill-rule:nonzero;stroke:black;stroke-width:0.625;stroke-miterlimit:4;stroke-dasharray:none;stroke-dashoffset:0;stroke-opacity:1"
         id="rect3747"
         width="39.080276"
         height="2.3359778"
         x="48.108517"
         y="456.30902" />
      <rect
         y="458.64499"
         x="48.108517"
         height="2.3359778"
         width="39.080276"
         id="rect3749"
         style="opacity:1;fill:#6f1c09;fill-opacity:1;fill-rule:nonzero;stroke:black;stroke-width:0.625;stroke-miterlimit:4;stroke-dasharray:none;stroke-dashoffset:0;stroke-opacity:1" />
      <path
         sodipodi:nodetypes="cccc"
         id="rect3751"
         d="M 38.701468,457.63486 L 47.996906,453.95074 L 48.045379,461.02181 L 38.701468,457.63486 z "
         style="fill:#f5c081;fill-opacity:1;fill-rule:nonzero;stroke:black;stroke-width:0.625;stroke-linejoin:round;stroke-miterlimit:4;stroke-dashoffset:0;stroke-opacity:1" />
      <path
         style="fill:black;fill-opacity:1;fill-rule:nonzero;stroke:black;stroke-width:0.2653439;stroke-linejoin:round;stroke-miterlimit:4;stroke-dashoffset:0;stroke-opacity:1"
         d="M 38.52164,457.54936 L 42.468021,455.98526 L 42.4886,458.98729 L 38.52164,457.54936 z "
         id="path3754"
         sodipodi:nodetypes="cccc" />
    </g>
    <text
       xml:space="preserve"
       style="font-size:14px;font-style:normal;font-variant:normal;font-weight:normal;font-stretch:normal;text-align:center;line-height:100%;writing-mode:lr-tb;text-anchor:middle;fill:black;fill-opacity:1;stroke:none;stroke-width:1px;stroke-linecap:butt;stroke-linejoin:miter;stroke-opacity:1;font-family:verdana"
       x="107.85714"
       y="226.62541"
       id="text1941"
       sodipodi:linespacing="100%"><tspan
         sodipodi:role="line"
         id="tspan1943"
         x="107.85714"
         y="226.62541" /><tspan
         sodipodi:role="line"
         x="110.31808"
         y="240.62541"
         id="tspan1945">Michal Hocko </tspan><tspan
         sodipodi:role="line"
         x="110.31808"
         y="254.62541"
         id="tspan1947">Jozef Mišutka  </tspan><tspan
         sodipodi:role="line"
         x="110.31808"
         y="268.62541"
         id="tspan1949">Martin Petříček </tspan><tspan
         sodipodi:role="line"
         x="110.31808"
         y="282.62541"
         id="tspan1951">Miroslav Jahoda </tspan></text>
    <text
       xml:space="preserve"
       style="font-size:14px;font-style:normal;font-variant:normal;font-weight:normal;font-stretch:normal;line-height:100%;writing-mode:lr-tb;text-anchor:start;fill:black;fill-opacity:1;stroke:none;stroke-width:1px;stroke-linecap:butt;stroke-linejoin:miter;stroke-opacity:1;font-family:Verdana"
       x="64.285713"
       y="182.33971"
       id="text1953"
       sodipodi:linespacing="100%"><tspan
         sodipodi:role="line"
         id="tspan1955"
         x="64.285713"
         y="182.33971">Martin Beran </tspan></text>
    <text
       xml:space="preserve"
       style="font-size:16px;font-style:normal;font-variant:normal;font-weight:bold;font-stretch:normal;text-align:start;line-height:100%;writing-mode:lr-tb;text-anchor:start;fill:black;fill-opacity:1;stroke:none;stroke-width:1px;stroke-linecap:butt;stroke-linejoin:miter;stroke-opacity:1;font-family:verdana"
       x="37.142857"
       y="158.76826"
       id="text1957"
       sodipodi:linespacing="100%"><tspan
         sodipodi:role="line"
         id="tspan1959"
         x="37.142857"
         y="158.76826">Vedoucí projektu</tspan></text>
    <text
       xml:space="preserve"
       style="font-size:16px;font-style:normal;font-variant:normal;font-weight:bold;font-stretch:normal;text-align:start;line-height:100%;writing-mode:lr-tb;text-anchor:start;fill:black;fill-opacity:1;stroke:none;stroke-width:1px;stroke-linecap:butt;stroke-linejoin:miter;stroke-opacity:1;font-family:verdana"
       x="72.14286"
       y="215.19682"
       id="text1961"
       sodipodi:linespacing="100%"><tspan
         sodipodi:role="line"
         id="tspan1963"
         x="72.14286"
         y="215.19682">Řešitelé</tspan></text>
  </g>
</svg>
