<?xml version="1.0" encoding="UTF-8" standalone="no"?>
<!-- Created with Inkscape (http://www.inkscape.org/) -->
<svg
   xmlns:dc="http://purl.org/dc/elements/1.1/"
   xmlns:cc="http://web.resource.org/cc/"
   xmlns:rdf="http://www.w3.org/1999/02/22-rdf-syntax-ns#"
   xmlns:svg="http://www.w3.org/2000/svg"
   xmlns="http://www.w3.org/2000/svg"
   xmlns:sodipodi="http://inkscape.sourceforge.net/DTD/sodipodi-0.dtd"
   xmlns:inkscape="http://www.inkscape.org/namespaces/inkscape"
   version="1.0"
   width="108"
   height="108"
   id="svg2"
   sodipodi:version="0.32"
   inkscape:version="0.43+devel"
   sodipodi:docname="pdfedit_icon.svg">
  <metadata
     id="metadata17">
    <rdf:RDF>
      <cc:Work
         rdf:about="">
        <dc:format>image/svg+xml</dc:format>
        <dc:type
           rdf:resource="http://purl.org/dc/dcmitype/StillImage" />
        <cc:license
           rdf:resource="http://creativecommons.org/licenses/GPL/2.0/" />
        <dc:title>PDF Editor icon</dc:title>
        <dc:creator>
          <cc:Agent>
            <dc:title>Martin Petricek</dc:title>
          </cc:Agent>
        </dc:creator>
      </cc:Work>
      <cc:License
         rdf:about="http://creativecommons.org/licenses/GPL/2.0/">
        <cc:permits
           rdf:resource="http://web.resource.org/cc/Reproduction" />
        <cc:permits
           rdf:resource="http://web.resource.org/cc/Distribution" />
        <cc:requires
           rdf:resource="http://web.resource.org/cc/Notice" />
        <cc:permits
           rdf:resource="http://web.resource.org/cc/DerivativeWorks" />
        <cc:requires
           rdf:resource="http://web.resource.org/cc/ShareAlike" />
        <cc:requires
           rdf:resource="http://web.resource.org/cc/SourceCode" />
      </cc:License>
    </rdf:RDF>
  </metadata>
  <sodipodi:namedview
     inkscape:window-height="536"
     inkscape:window-width="773"
     inkscape:pageshadow="2"
     inkscape:pageopacity="0.0"
     borderopacity="1.0"
     bordercolor="#666666"
     pagecolor="#ffffff"
     id="base"
     width="108px"
     height="108px"
     inkscape:zoom="1.4367677"
     inkscape:cx="23.747232"
     inkscape:cy="34.432675"
     inkscape:window-x="88"
     inkscape:window-y="88"
     inkscape:current-layer="svg2" />
  <defs
     id="defs4" />
  <g
     id="layer1"
     transform="translate(-13.63706,-308.7237)">
    <rect
       width="108"
       height="108"
       x="13.637058"
       y="308.72372"
       style="opacity:1;fill:white;fill-opacity:1;fill-rule:nonzero;stroke:none;stroke-width:0.625;stroke-linejoin:round;stroke-miterlimit:4;stroke-dasharray:none;stroke-dashoffset:0;stroke-opacity:1"
       id="rect5550" />
    <path
       d="M 22.574543,315.03738 C 13.47763,319.49223 19.227848,330.85762 17.10707,338.51314 C 13.712536,346.76883 22.229382,362.11231 30.969937,352.98256 C 34.774118,347.02948 41.879425,339.58352 49.372767,341.87225 C 46.240129,352.45724 58.137929,359.65442 67.656721,356.15109 C 75.766036,356.37963 84.83568,342.61731 89.638288,354.04373 C 98.312038,360.17296 102.86136,350.41784 105.1092,344.02606 C 114.04387,340.90402 120.07289,332.99025 118.15194,323.15959 C 116.84372,311.89932 102.47289,313.1367 94.253867,314.50438 C 87.950155,318.95506 80.938453,323.21876 74.183244,316.29156 C 63.721889,311.81787 52.472538,317.43014 41.661886,317.18109 C 35.859082,313.7524 28.939978,315.27146 22.574543,315.03738 z M 33.824543,328.91238 C 38.214781,327.02167 32.714998,332.66544 33.824543,328.91238 z M 67.824547,329.28738 C 77.801852,328.99729 66.421994,346.29488 65.713236,333.72166 C 65.733499,332.04782 66.373848,330.25671 67.824547,329.28738 z "
       style="font-size:22.1550293px;font-style:normal;font-variant:normal;font-weight:bold;font-stretch:normal;text-align:start;line-height:100%;writing-mode:lr-tb;text-anchor:start;fill:#8edaee;fill-opacity:1;stroke:none;stroke-width:1px;stroke-linecap:butt;stroke-linejoin:miter;stroke-opacity:1;font-family:verdana"
       id="path3737" />
    <path
       d="M 48.163295,329.21367 C 48.550089,336.79181 39.995817,342.47315 32.990595,340.50913 C 27.545363,340.39751 30.896695,346.83743 29.677491,349.82201 C 27.385561,353.62073 20.036165,351.71161 21.359859,346.85281 C 21.864497,339.17387 21.431577,331.46347 21.572935,323.76817 C 21.653431,321.36113 20.641551,317.90085 24.258729,319.12391 C 30.692793,319.20349 37.531163,318.08107 43.589193,320.79559 C 46.436839,322.52733 48.502819,325.80805 48.163295,329.21367 z M 39.573903,329.40843 C 39.395195,325.15865 31.631401,322.66211 30.134327,327.07983 C 28.625451,330.53003 29.870469,336.76609 34.844097,334.58823 C 37.397833,334.23541 40.061003,332.28369 39.573903,329.40843 z M 84.468129,335.18515 C 84.994773,344.16883 76.242307,352.05801 67.402095,351.18149 C 62.946329,351.41371 58.484663,351.16461 54.026593,351.26053 C 54.026589,340.52199 54.026593,329.78343 54.026593,319.04489 C 62.191087,319.50673 71.315113,317.41117 78.512899,322.39819 C 82.381853,325.37895 84.750535,330.28577 84.468129,335.18515 z M 75.878727,335.12027 C 76.523279,329.94553 71.816649,324.62531 66.514921,325.13979 C 61.999567,323.21615 61.334371,329.54799 62.334729,332.48811 C 62.334727,336.73345 62.334729,340.97881 62.334729,345.22415 C 66.687817,345.52823 72.201245,345.17937 74.598743,340.91381 C 75.584003,339.15735 75.874725,337.10773 75.878727,335.12027 z M 113.89278,325.27597 C 108.95261,325.27597 104.01243,325.27597 99.072263,325.27597 C 97.269955,329.21801 101.22319,333.26799 105.13661,331.44689 C 108.37536,330.46009 114.36813,330.79919 112.96513,335.66089 C 110.57962,339.42267 105.40369,337.06751 101.88032,337.19605 C 97.106833,338.19987 99.310499,343.51653 99.116055,346.86587 C 100.22966,350.43423 97.440895,352.57453 94.048015,351.38451 C 89.306747,351.09449 90.975001,346.19241 90.807403,343.07735 C 90.807409,335.06653 90.807401,327.05571 90.807401,319.04489 C 98.502525,319.04489 106.19765,319.04489 113.89277,319.04489 C 113.89274,321.12191 113.89276,323.19895 113.89278,325.27597 z "
       style="font-size:22.1550293px;font-style:normal;font-variant:normal;font-weight:bold;font-stretch:normal;text-align:start;line-height:100%;writing-mode:lr-tb;text-anchor:start;fill:#0200dd;fill-opacity:1;stroke:none;stroke-width:1px;stroke-linecap:butt;stroke-linejoin:miter;stroke-opacity:1;font-family:verdana"
       id="text2823" />
    <path
       d="M 52.137043,351.4111 C 50.58677,356.06763 44.730095,359.92467 40.052083,357.19512 C 37.70981,353.93573 34.992097,350.31688 30.421602,350.97648 C 22.161019,350.70869 15.706452,358.68763 15.711457,366.57369 C 15.749131,370.37048 16.25036,374.2241 17.340562,377.85669 C 19.583406,383.02335 25.740142,384.19839 30.801401,383.88685 C 37.163441,383.68453 43.520816,382.84015 49.886306,383.46258 C 61.631046,383.66496 73.41716,382.3149 85.127463,383.71125 C 92.329839,382.55628 100.35414,384.92864 106.8886,380.82527 C 111.52987,378.1997 109.26187,371.3067 114.45542,369.87707 C 118.30992,367.24932 117.1342,361.7516 113.58037,359.49052 C 109.88754,356.56062 104.76763,356.43803 100.46268,357.91275 C 89.260989,360.06172 77.537458,357.70426 67.426052,352.64679 C 62.294474,352.79128 57.248495,351.63441 52.137043,351.4111 z M 89.699547,368.0986 C 93.822962,369.18005 87.568422,373.76862 88.376152,369.63573 C 88.706555,369.0364 89.210377,368.56458 89.699547,368.0986 z M 48.887043,368.8486 C 52.793858,373.01315 43.73709,371.49302 48.887043,368.8486 z M 77.887047,368.6611 C 79.189125,371.08089 75.925508,371.56493 77.721449,368.98651 L 77.818029,368.79673 L 77.887047,368.6611 z M 29.824543,372.0986 C 31.169016,370.68669 37.432918,371.81217 33.255201,373.08875 C 32.038814,373.18854 30.826941,372.76815 29.824543,372.0986 z "
       style="font-size:16.05597496px;font-style:normal;font-variant:normal;font-weight:normal;font-stretch:normal;line-height:100%;writing-mode:lr-tb;text-anchor:start;opacity:1;fill:#8edaee;fill-opacity:1;stroke:none;stroke-width:1px;stroke-linecap:butt;stroke-linejoin:miter;stroke-opacity:1;font-family:Verdana"
       id="path3741" />
    <path
       d="M 36.792545,379.62253 C 31.665295,379.62253 26.538043,379.62253 21.410793,379.62253 C 21.410793,371.84019 21.410793,364.05783 21.410793,356.27549 C 26.538043,356.27549 31.665295,356.27549 36.792545,356.27549 C 38.048595,361.11351 31.526913,358.30675 28.833277,359.03513 C 26.274363,358.84845 23.558895,358.50523 24.515369,361.83393 C 23.892707,364.80707 24.911257,366.13901 27.968325,365.43241 C 30.909731,365.43241 33.851139,365.43241 36.792545,365.43241 C 38.048595,370.27043 31.526913,367.46365 28.833277,368.19205 C 26.402385,368.10367 23.499463,367.54327 24.515369,370.90169 C 24.696901,373.73031 23.268105,378.16929 27.584663,376.86289 C 30.653957,376.86289 33.723251,376.86289 36.792545,376.86289 C 36.792545,377.78277 36.792545,378.70265 36.792545,379.62253 z M 55.702213,379.62253 C 53.993517,379.90369 52.686647,379.67481 52.338977,378.15319 C 49.643607,380.38033 45.600727,381.18265 42.864405,378.45431 C 39.564807,374.97385 39.480589,369.15103 41.864865,365.13429 C 43.587999,362.30027 47.396193,360.62385 50.537565,362.04931 C 54.271409,363.69119 52.250977,358.18467 52.754437,356.10207 C 52.502751,354.36827 57.126805,354.84369 55.702213,357.28611 C 55.702213,364.73157 55.702213,372.17705 55.702213,379.62253 z M 52.754437,375.31065 C 52.079801,371.98251 54.172639,366.81369 51.576641,364.75823 C 47.393487,362.84919 42.706117,366.22311 43.320919,370.81915 C 42.560735,374.47639 45.837905,378.67683 49.682365,376.99421 C 50.802263,376.63597 51.830877,376.03165 52.754437,375.31065 z M 64.670987,359.17625 C 62.276263,360.13665 59.936967,357.90431 61.918961,356.11869 C 64.671099,355.60203 65.008099,356.50019 64.670987,359.17625 z M 64.482831,379.62253 C 60.074365,380.98927 61.863801,375.79901 61.535053,373.22663 C 61.535053,369.52055 61.535053,365.81445 61.535053,362.10837 C 65.943521,360.74163 64.154081,365.93191 64.482831,368.50427 C 64.482831,372.21035 64.482833,375.91645 64.482831,379.62253 z M 79.441227,379.46573 C 76.018623,380.75237 70.516291,379.89459 70.560421,375.29365 C 69.878925,371.78441 71.130405,367.81835 70.018497,364.54045 C 67.348089,365.27081 68.142199,361.31555 70.295993,361.84615 C 70.239447,359.54605 70.083183,355.27177 73.417903,357.52825 C 73.529979,359.55355 72.293903,363.21227 75.638909,362.10837 C 77.738725,361.85153 80.677365,361.78901 79.187603,364.57087 C 76.722049,364.97551 72.069999,363.14461 73.367857,367.31057 C 74.014671,370.36669 71.528517,376.88117 76.001599,377.29441 C 78.016451,376.94509 80.219771,376.52023 79.441227,379.46573 z M 97.943225,370.87327 C 98.326013,375.24757 95.141171,380.08453 90.457321,380.12659 C 86.059955,380.63025 82.016073,376.91789 81.857843,372.55319 C 81.143283,368.15923 83.191115,362.61869 88.043875,361.76677 C 92.326395,360.73449 97.171779,363.68031 97.692443,368.18459 C 97.871007,369.06877 97.942811,369.97209 97.943225,370.87327 z M 94.901371,370.87327 C 95.692259,366.82399 91.491043,362.38095 87.475973,364.68989 C 84.186327,367.00289 84.022631,372.33883 85.965101,375.54419 C 88.069065,378.88885 93.683029,377.91655 94.485159,374.05607 C 94.803529,373.02843 94.910983,371.94557 94.901371,370.87327 z M 113.45041,365.32267 C 110.03662,364.23485 104.30564,365.65521 105.46947,370.29461 C 105.21027,373.23085 105.9847,377.37051 105.08778,379.56423 C 100.78047,380.84577 103.09168,375.06383 102.52169,372.69719 C 102.52169,369.16759 102.52169,365.63797 102.52169,362.10837 C 104.22716,361.90785 106.08927,361.85243 105.4496,364.14689 C 107.72859,363.69463 111.24729,360.34473 113.5122,363.01389 C 113.75317,363.78265 113.30692,364.53387 113.45041,365.32267 z "
       style="font-size:16.05597496px;font-style:normal;font-variant:normal;font-weight:normal;font-stretch:normal;line-height:100%;writing-mode:lr-tb;text-anchor:start;fill:#0200dd;fill-opacity:1;stroke:none;stroke-width:1px;stroke-linecap:butt;stroke-linejoin:miter;stroke-opacity:1;font-family:Verdana"
       id="text2829" />
    <g
       transform="matrix(2,-1.770508e-7,1.770508e-7,2,-58.27951,-516.9183)"
       id="g3756">
      <rect
         width="39.080276"
         height="2.3359778"
         x="48.108517"
         y="453.97305"
         style="opacity:1;fill:#ef7f30;fill-opacity:1;fill-rule:nonzero;stroke:black;stroke-width:0.625;stroke-miterlimit:4;stroke-dasharray:none;stroke-dashoffset:0;stroke-opacity:1"
         id="rect3745" />
      <rect
         width="39.080276"
         height="2.3359778"
         x="48.108517"
         y="456.30902"
         style="opacity:1;fill:#e82713;fill-opacity:1;fill-rule:nonzero;stroke:black;stroke-width:0.625;stroke-miterlimit:4;stroke-dasharray:none;stroke-dashoffset:0;stroke-opacity:1"
         id="rect3747" />
      <rect
         width="39.080276"
         height="2.3359778"
         x="48.108517"
         y="458.64499"
         style="opacity:1;fill:#6f1c09;fill-opacity:1;fill-rule:nonzero;stroke:black;stroke-width:0.625;stroke-miterlimit:4;stroke-dasharray:none;stroke-dashoffset:0;stroke-opacity:1"
         id="rect3749" />
      <path
         d="M 38.701468,457.63486 L 47.996906,453.95074 L 48.045379,461.02181 L 38.701468,457.63486 z "
         style="fill:#f5c081;fill-opacity:1;fill-rule:nonzero;stroke:black;stroke-width:0.625;stroke-linejoin:round;stroke-miterlimit:4;stroke-dashoffset:0;stroke-opacity:1"
         id="rect3751" />
      <path
         d="M 38.52164,457.54936 L 42.468021,455.98526 L 42.4886,458.98729 L 38.52164,457.54936 z "
         style="fill:black;fill-opacity:1;fill-rule:nonzero;stroke:black;stroke-width:0.2653439;stroke-linejoin:round;stroke-miterlimit:4;stroke-dashoffset:0;stroke-opacity:1"
         id="path3754" />
    </g>
  </g>
</svg>
